<?xml version="1.0" standalone="no"?>
<!DOCTYPE svg PUBLIC "-//W3C//DTD SVG 20010904//EN"
 "http://www.w3.org/TR/2001/REC-SVG-20010904/DTD/svg10.dtd">
<svg version="1.0" xmlns="http://www.w3.org/2000/svg"
 width="700.000000pt" height="700.000000pt" viewBox="0 0 700.000000 700.000000"
 preserveAspectRatio="xMidYMid meet">
<metadata>
Created by potrace 1.11, written by Peter Selinger 2001-2013
</metadata>
<g transform="translate(0.000000,700.000000) scale(0.100000,-0.100000)"
fill="#000000" stroke="none">
<path d="M3279 6976 c-2 -2 -44 -6 -94 -10 -78 -5 -187 -19 -315 -41 -45 -8
-228 -49 -305 -68 -85 -22 -340 -110 -407 -141 -31 -14 -60 -26 -63 -26 -12 0
-278 -135 -356 -180 -164 -95 -375 -246 -524 -373 -58 -50 -289 -278 -351
-348 -71 -79 -197 -245 -282 -373 -51 -75 -92 -139 -92 -141 0 -3 -11 -23 -24
-44 -29 -46 -133 -250 -171 -336 -100 -224 -211 -591 -240 -784 -2 -14 -10
-73 -19 -131 -24 -168 -30 -261 -30 -490 0 -343 24 -541 100 -848 260 -1046
1008 -1928 1994 -2352 258 -110 560 -202 780 -236 19 -3 42 -7 50 -9 8 -2 42
-7 75 -11 33 -3 69 -8 79 -10 132 -25 686 -24 816 1 9 2 41 6 71 9 62 7 95 13
249 42 14 3 84 20 155 39 383 101 719 252 1045 468 88 59 262 187 280 207 3 3
34 29 70 59 77 65 317 304 379 380 305 367 518 748 655 1171 58 178 64 198 70
230 2 14 12 57 21 95 20 85 43 212 51 280 3 28 7 55 9 62 27 83 26 651 0 853
-6 45 -45 272 -49 285 -1 6 -6 28 -11 50 -8 45 -41 174 -55 220 -32 102 -72
223 -80 240 -5 11 -34 81 -65 155 -131 310 -319 613 -554 890 -132 156 -364
376 -537 507 -397 302 -912 542 -1349 629 -22 4 -42 8 -45 9 -18 6 -105 22
-167 31 -26 3 -56 8 -67 10 -10 2 -44 6 -75 9 -31 4 -67 9 -81 11 -31 7 -535
16 -541 10z"/>
</g>
</svg>
